HIERARCHY
ROOT Hips
{
 OFFSET 0.000000 0.000000 0.000000
 CHANNELS 6 Xposition Yposition Zposition Yrotation Xrotation Zrotation
 JOINT Chest
 {
  OFFSET 0.000000 9.585900 0.002600
  CHANNELS 3 Yrotation Xrotation Zrotation
  JOINT Chest2
  {
   OFFSET 0.000000 9.601200 -0.005300
   CHANNELS 3 Yrotation Xrotation Zrotation
   JOINT Chest3
   {
    OFFSET 0.000000 9.561800 0.000000
    CHANNELS 3 Yrotation Xrotation Zrotation
    JOINT Chest4
    {
     OFFSET 0.000000 9.552100 0.000000
     CHANNELS 3 Yrotation Xrotation Zrotation
     JOINT Neck
     {
      OFFSET 0.000000 14.453000 0.000000
      CHANNELS 3 Yrotation Xrotation Zrotation
      JOINT Head
      {
       OFFSET 0.000000 8.936500 -0.011300
       CHANNELS 3 Yrotation Xrotation Zrotation
       End Site
       {
        OFFSET 0.000000 17.073600 -0.006000
       }
      }
     }
     JOINT RightCollar
     {
      OFFSET -2.921100 9.558500 0.000000
      CHANNELS 3 Yrotation Xrotation Zrotation
      JOINT RightShoulder
      {
       OFFSET -13.519700 0.000000 0.000000
       CHANNELS 3 Yrotation Xrotation Zrotation
       JOINT RightElbow
       {
        OFFSET 0.000000 -29.696600 0.000000
        CHANNELS 3 Yrotation Xrotation Zrotation
        JOINT RightWrist
        {
         OFFSET 0.000000 -24.004700 0.000000
         CHANNELS 3 Yrotation Xrotation Zrotation
         End Site
         {
          OFFSET 0.000000 -17.728500 0.000000
         }
        }
       }
      }
     }
     JOINT LeftCollar
     {
      OFFSET 2.921100 9.558500 0.000000
      CHANNELS 3 Yrotation Xrotation Zrotation
      JOINT LeftShoulder
      {
       OFFSET 13.519700 0.000000 0.000000
       CHANNELS 3 Yrotation Xrotation Zrotation
       JOINT LeftElbow
       {
        OFFSET 0.000000 -29.696600 0.000000
        CHANNELS 3 Yrotation Xrotation Zrotation
        JOINT LeftWrist
        {
         OFFSET 0.000000 -24.004700 0.000000
         CHANNELS 3 Yrotation Xrotation Zrotation
         End Site
         {
          OFFSET 0.000000 -17.728500 0.000000
         }
        }
       }
      }
     }
    }
   }
  }
 }
 JOINT RightHip
 {
  OFFSET -7.771700 -0.012900 -0.001300
  CHANNELS 3 Yrotation Xrotation Zrotation
  JOINT RightKnee
  {
   OFFSET 0.000000 -40.869800 0.001200
   CHANNELS 3 Yrotation Xrotation Zrotation
   JOINT RightAnkle
   {
    OFFSET 0.000000 -39.717900 0.002100
    CHANNELS 3 Yrotation Xrotation Zrotation
    JOINT RightToe
    {
     OFFSET 0.000000 -4.965400 11.033500
     CHANNELS 3 Yrotation Xrotation Zrotation
     End Site
     {
      OFFSET 0.000000 -1.423100 5.872300
     }
    }
   }
  }
 }
 JOINT LeftHip
 {
  OFFSET 7.771700 -0.012900 -0.001300
  CHANNELS 3 Yrotation Xrotation Zrotation
  JOINT LeftKnee
  {
   OFFSET 0.000000 -40.869800 0.001200
   CHANNELS 3 Yrotation Xrotation Zrotation
   JOINT LeftAnkle
   {
    OFFSET 0.000000 -39.717900 0.002100
    CHANNELS 3 Yrotation Xrotation Zrotation
    JOINT LeftToe
    {
     OFFSET 0.000000 -4.965400 11.033500
     CHANNELS 3 Yrotation Xrotation Zrotation
     End Site
     {
      OFFSET 0.000000 -1.423100 5.872300
     }
    }
   }
  }
 }
}
MOTION
Frames: 15
Frame Time: 0.008333
0.000000 85.388000 0.000000 0.000000 -5.767877 0.000000 0.000000 11.653817 0.000000 0.000000 -5.885947 0.000000 0.000000 -0.000000 0.000000 0.000000 -0.000000 0.000000 0.000000 12.528835 0.000000 0.000000 0.711642 0.000000 0.000000 -0.000000 0.000000 0.000000 0.000000 -90.000000 0.000000 -2.309062 0.000000 0.000000 2.309062 0.000000 0.000000 -0.000000 0.000000 0.000000 -0.000000 90.000000 0.000000 -2.309062 0.000000 0.000000 2.309062 0.000000 0.000000 8.520406 0.000000 0.000000 1.905762 0.000000 -0.000000 -4.658285 0.000000 0.000000 -0.000000 0.000000 0.000000 8.520406 0.000000 0.000000 1.905762 0.000000 -0.000000 -4.658285 0.000000 0.000000 -0.000000 0.000000
-82.066023 44.239017 20.257044 177.314812 -34.214571 -0.330090 -1.067701 18.022807 1.601921 -0.167933 2.028605 0.257333 -0.273470 3.361298 0.423217 -1.087241 15.766555 1.883094 -6.360306 18.738258 -2.030225 -6.386799 -5.750517 -0.723639 2.287512 -2.239764 -14.030435 -24.569912 -7.892183 -8.451107 -146.984173 -49.685318 168.569865 -14.319428 -2.554545 -46.636583 -1.351724 -1.835312 3.993776 26.746354 1.588709 5.408831 118.835726 -44.024082 -159.785857 28.239824 -3.560273 33.786078 1.648007 -58.700214 6.760516 -138.359648 69.004235 -137.304182 -10.109270 -20.963802 7.845121 0.179472 -0.931736 0.063538 2.780715 -42.839054 -4.755566 173.925138 60.034552 174.214365 0.164902 -39.747250 1.506439 0.138086 0.328748 0.056231
-82.062420 44.243145 20.254398 177.332373 -34.230276 -0.355344 -1.075047 18.044586 1.624103 -0.170762 2.032021 0.264799 -0.275880 3.363928 0.424540 -1.097918 15.769611 1.887248 -6.342409 18.719144 -2.038549 -6.343078 -5.777233 -0.717939 2.294666 -2.245268 -14.035113 -24.532271 -7.869468 -8.427191 -147.063971 -49.715153 168.620803 -14.327488 -2.531481 -46.591346 -1.340026 -1.846602 3.957244 26.731931 1.589660 5.409722 118.846372 -43.993582 -159.820475 28.214582 -3.510626 33.892436 1.652542 -58.664966 6.734288 -138.546929 69.057179 -137.436943 -10.165270 -21.045169 7.853691 0.176023 -0.849695 0.042184 2.749755 -42.825083 -4.734258 173.940959 60.032292 174.234557 0.176053 -39.735461 1.499685 0.140537 0.318163 0.056054
-82.061869 44.247230 20.252386 177.343523 -34.238713 -0.358954 -1.087268 18.055284 1.629255 -0.169712 2.030538 0.258303 -0.276401 3.364235 0.424670 -1.111793 15.769808 1.898478 -6.305345 18.712181 -2.028963 -6.313897 -5.783732 -0.730600 2.304288 -2.235197 -14.034062 -24.524723 -7.882181 -8.434273 -146.938668 -49.764218 168.509110 -14.296946 -2.542409 -46.523479 -1.323023 -1.844902 3.923989 26.714405 1.584504 5.405321 118.853576 -43.978112 -159.836211 28.203713 -3.468352 33.989716 1.666856 -58.646072 6.700414 -138.685830 69.085401 -137.541435 -10.211505 -21.115420 7.853320 0.193571 -0.787032 0.040844 2.742874 -42.816485 -4.736827 173.961721 60.033869 174.254079 0.186421 -39.720545 1.502333 0.133658 0.313658 0.055739
-82.062377 44.251933 20.250079 177.344092 -34.247399 -0.352262 -1.095117 18.060964 1.629388 -0.170852 2.031011 0.258503 -0.278164 3.364707 0.425175 -1.116670 15.768714 1.895010 -6.295927 18.713886 -2.035583 -6.260720 -5.779814 -0.735466 2.301752 -2.222661 -14.022144 -24.501988 -7.883521 -8.427439 -146.868196 -49.777894 168.454360 -14.309768 -2.526088 -46.474299 -1.315584 -1.840655 3.881287 26.709819 1.569595 5.409936 118.832605 -43.955964 -159.842982 28.197471 -3.445209 34.051446 1.692582 -58.626706 6.660617 -138.805870 69.109807 -137.630910 -10.252513 -21.188775 7.853409 0.208411 -0.747768 0.049727 2.757403 -42.805312 -4.748446 173.986135 60.037035 174.283748 0.180425 -39.701436 1.519148 0.139238 0.305503 0.053696
-82.063161 44.256915 20.247904 177.341418 -34.253756 -0.347003 -1.094239 18.049510 1.635156 -0.173993 2.041883 0.256150 -0.280624 3.354618 0.428922 -1.118649 15.784048 1.884805 -6.270236 18.714790 -2.025878 -6.250804 -5.775129 -0.744111 2.297140 -2.220170 -14.001760 -24.466477 -7.883544 -8.382603 -146.819670 -49.813974 168.428104 -14.338216 -2.514469 -46.437838 -1.331025 -1.887465 3.791638 26.747361 1.565346 5.451476 118.772163 -43.945591 -159.849537 28.195658 -3.428700 34.084985 1.718054 -58.610121 6.623114 -138.876033 69.130161 -137.681099 -10.263333 -21.238724 7.859037 0.208514 -0.737440 0.050714 2.769764 -42.793036 -4.759266 174.033846 60.040925 174.332836 0.201127 -39.694422 1.524225 0.144320 0.299179 0.051772
-82.065820 44.262041 20.245860 177.340667 -34.257667 -0.339543 -1.096006 18.043445 1.629604 -0.174678 2.026986 0.259007 -0.281276 3.372981 0.425748 -1.123356 15.781838 1.887383 -6.194629 18.740238 -2.014000 -6.219719 -5.746549 -0.753356 2.293264 -2.217467 -13.984148 -24.448169 -7.895922 -8.365618 -146.693719 -49.836823 168.337277 -14.377862 -2.505500 -46.420194 -1.348896 -1.920813 3.731756 26.791453 1.575606 5.486037 118.682227 -43.882684 -159.831875 28.211361 -3.409374 34.091125 1.764785 -58.597752 6.556415 -138.967630 69.154848 -137.744714 -10.259342 -21.270059 7.856856 0.194352 -0.733237 0.045572 2.784863 -42.782966 -4.775159 174.045336 60.046336 174.350146 0.198444 -39.686479 1.534379 0.152827 0.295123 0.049547
-82.072402 44.268363 20.242211 177.349851 -34.271496 -0.324165 -1.110673 18.053142 1.608259 -0.178278 2.014270 0.258809 -0.279271 3.381127 0.427038 -1.132203 15.771188 1.892374 -6.148363 18.783252 -2.014586 -6.146725 -5.689144 -0.765640 2.290623 -2.205293 -13.977130 -24.431972 -7.903621 -8.360655 -146.626189 -49.847236 168.289266 -14.478625 -2.494527 -46.426102 -1.366709 -1.950404 3.661614 26.856584 1.584988 5.524868 118.567266 -43.792361 -159.808418 28.253180 -3.386558 34.074174 1.857578 -58.573119 6.426843 -139.064560 69.163688 -137.799138 -10.220922 -21.319068 7.865976 0.177263 -0.726557 0.027985 2.804043 -42.760140 -4.808859 174.042022 60.054279 174.351383 0.184438 -39.679604 1.545475 0.149328 0.304158 0.056439
-82.080223 44.273214 20.241037 177.336965 -34.267549 -0.301282 -1.108766 18.033921 1.589185 -0.179115 2.016210 0.260583 -0.288826 3.356737 0.427644 -1.128607 15.787094 1.893586 -6.101486 18.845713 -2.009763 -6.089396 -5.620431 -0.773522 2.285037 -2.195904 -13.971189 -24.415773 -7.906937 -8.351162 -146.555100 -49.856988 168.238678 -14.577146 -2.484912 -46.437508 -1.386040 -1.978721 3.595648 26.946744 1.587089 5.558193 118.444800 -43.674557 -159.791056 28.318394 -3.364667 34.049935 1.995891 -58.566508 6.275547 -139.086675 69.169741 -137.779603 -10.140697 -21.340787 7.888385 0.139699 -0.744734 0.007744 2.835370 -42.756113 -4.835656 174.064788 60.061641 174.371619 0.185112 -39.674578 1.554545 0.155705 0.301980 0.060478
-82.089508 44.278715 20.239148 177.326363 -34.269296 -0.281980 -1.110199 18.018674 1.574039 -0.175559 2.028495 0.260062 -0.295890 3.347041 0.427903 -1.134542 15.776265 1.895450 -6.052650 18.930821 -2.004135 -6.026641 -5.534614 -0.780985 2.286435 -2.188837 -13.968906 -24.434666 -7.938678 -8.262202 -146.320535 -49.876321 168.065175 -14.539886 -2.435391 -46.393702 -1.386187 -1.978010 3.558966 27.054946 1.565094 5.547094 118.327373 -43.536015 -159.783705 28.397781 -3.350845 34.043881 2.117936 -58.555729 6.146553 -139.113346 69.183699 -137.767232 -10.109958 -21.329610 7.908502 0.087996 -0.792352 0.004792 2.857840 -42.747405 -4.850884 174.103956 60.066919 174.395403 0.187342 -39.667277 1.574503 0.156537 0.295018 0.061483
-82.099036 44.285755 20.235348 177.333718 -34.286278 -0.279924 -1.128352 18.019489 1.564320 -0.177208 2.027629 0.259871 -0.301770 3.351467 0.427501 -1.167223 15.760416 1.895039 -5.977227 19.041254 -2.003276 -5.963021 -5.432395 -0.786040 2.331663 -2.179256 -13.983456 -24.460778 -7.944363 -8.217976 -146.174956 -49.852672 167.905306 -14.557434 -2.366259 -46.300169 -1.366228 -1.997699 3.480053 27.212658 1.529307 5.576035 118.232421 -43.386874 -159.787286 28.479189 -3.352288 34.070115 2.153650 -58.534993 6.100055 -139.080343 69.180314 -137.728126 -10.116707 -21.259269 7.929834 0.115001 -0.857111 0.001624 2.862007 -42.722088 -4.854220 174.144440 60.073185 174.424998 0.173494 -39.664936 1.601068 0.161970 0.299013 0.067363
-82.107367 44.291710 20.233511 177.318728 -34.291592 -0.278568 -1.141957 18.000083 1.560940 -0.180996 2.029006 0.260304 -0.294962 3.361595 0.427868 -1.152121 15.772214 1.893723 -5.942920 19.146030 -1.981679 -5.904615 -5.309572 -0.784666 2.344198 -2.196257 -13.986930 -24.507400 -7.947222 -8.172931 -146.099299 -49.819797 167.780389 -14.600009 -2.280190 -46.143271 -1.382347 -2.038570 3.428412 27.405366 1.470868 5.585217 118.191401 -43.240980 -159.808881 28.556139 -3.380723 34.127102 2.300424 -58.522874 5.964727 -139.061060 69.194231 -137.658452 -10.031575 -21.182574 7.939309 0.042190 -0.920935 -0.006999 2.888865 -42.704582 -4.847894 174.184168 60.080610 174.464504 0.163181 -39.675403 1.625954 0.171069 0.305995 0.073279
-82.114427 44.297915 20.231705 177.314738 -34.299359 -0.292199 -1.148409 17.995583 1.571816 -0.183095 2.029515 0.260204 -0.289038 3.368242 0.428371 -1.176609 15.769029 1.892792 -5.898201 19.277945 -1.962382 -5.860084 -5.161978 -0.772972 2.396818 -2.209605 -13.993501 -24.546942 -7.932280 -8.160242 -146.072092 -49.743681 167.618270 -14.645055 -2.173220 -45.908143 -1.362348 -2.057465 3.399716 27.623431 1.390399 5.558484 118.220628 -43.110408 -159.850381 28.623390 -3.453670 34.215052 2.535818 -58.504275 5.750749 -139.116783 69.225659 -137.604983 -9.942390 -21.113836 7.938138 -0.014875 -0.939290 -0.010096 2.888722 -42.689448 -4.827810 174.215594 60.085020 174.492760 0.159884 -39.680060 1.641192 0.177044 0.306996 0.077636
-82.119879 44.303395 20.231253 177.307275 -34.300404 -0.310554 -1.146671 17.985736 1.591265 -0.184920 2.029896 0.260034 -0.287062 3.373407 0.428326 -1.204047 15.763806 1.890334 -5.861706 19.434513 -1.938223 -5.835073 -4.988486 -0.751201 2.499468 -2.246354 -14.001116 -24.721563 -7.881684 -8.107465 -146.038016 -49.653629 167.503832 -14.693127 -2.068999 -45.607464 -1.332944 -2.065164 3.384765 27.865940 1.291438 5.520194 118.327999 -42.998399 -159.911045 28.675165 -3.580337 34.338987 2.609510 -58.498390 5.705182 -139.104961 69.248486 -137.558456 -9.920564 -21.024341 7.928350 -0.028471 -0.999677 0.005474 2.884377 -42.684112 -4.795611 174.241485 60.088016 174.515736 0.153633 -39.683199 1.655402 0.180182 0.307337 0.081822
-82.122590 44.308013 20.232384 177.316356 -34.293522 -0.347830 -1.150478 17.971112 1.624138 -0.186646 2.030342 0.259911 -0.302021 3.365973 0.426433 -1.212914 15.769376 1.883664 -5.836603 19.612733 -1.905507 -5.825428 -4.792467 -0.723494 2.545494 -2.244398 -14.005121 -24.915933 -7.865014 -8.015054 -146.008780 -49.527958 167.400770 -14.749554 -1.994885 -45.270605 -1.305181 -2.061677 3.380817 28.132324 1.177907 5.486017 118.538858 -42.908314 -160.007554 28.708526 -3.764697 34.498142 2.635113 -58.499124 5.702644 -139.070345 69.262530 -137.500649 -9.916076 -21.020400 7.936553 -0.030655 -0.940215 0.009185 2.856054 -42.688580 -4.747971 174.258405 60.092071 174.528397 0.173736 -39.670617 1.660435 0.153837 0.294138 0.075058
